<?xml version="1.0" encoding="UTF-8"?>
<svg xmlns="http://www.w3.org/2000/svg" version="1.1" xmlns:inkscape="http://www.inkscape.org/namespaces/inkscape" xmlns:sodipodi="http://sodipodi.sourceforge.net/DTD/sodipodi-0.dtd" xmlns:svg="http://www.w3.org/2000/svg" viewBox="0 0 558.7 558.7">
  <!-- Generator: Adobe Illustrator 29.1.0, SVG Export Plug-In . SVG Version: 2.1.0 Build 142)  -->
  <defs>
    <style>
      .st0 {
        fill: #fff;
      }
    </style>
  </defs>
  <g id="svg5" inkscape:export-xdpi="515.49646" inkscape:export-ydpi="515.49646" inkscape:version="1.3 (0e150ed6c4, 2023-07-21)" sodipodi:docname="giants-deep_v1_wip.svg">
    <sodipodi:namedview id="namedview7" bordercolor="#eeeeee" borderopacity="1" inkscape:current-layer="g7597" inkscape:cx="366.52739" inkscape:cy="419.98933" inkscape:deskcolor="#d1d1d1" inkscape:document-units="mm" inkscape:guide-bbox="true" inkscape:pagecheckerboard="true" inkscape:pageopacity="0" inkscape:pageshadow="0" inkscape:showpageshadow="2" inkscape:snap-global="false" inkscape:window-height="1366" inkscape:window-maximized="1" inkscape:window-width="2560" inkscape:window-x="0" inkscape:window-y="0" inkscape:zoom="1.0381216" pagecolor="#505050" showgrid="false" showguides="true"/>
    <path class="st0" d="M476.9,81.8C424.1,29.1,354,0,279.3,0S134.6,29.1,81.8,81.8,0,204.7,0,279.3s29.1,144.8,81.8,197.5,122.9,81.8,197.5,81.8,144.8-29.1,197.5-81.8,81.8-122.9,81.8-197.5-29.1-144.8-81.8-197.5ZM448.6,181c-.4-.4-9,4-19,9.6-10.1,5.7-26.2,13.3-35.9,17-15.9,6-19.7,6.7-38.7,7.5-25.7,1-69.1-1.8-101.2-6.6-74.8-11.2-123,2.5-167.2,47.3-19.8,20.1-30.8,36.2-43.3,63.3-4.5,9.7-8.3,17.8-9.5,19.9-4.6-19.1-7.1-39.1-7.1-59.6s.2-10.3.5-15.4c.8-5.4,1.8-10.2,3-13.5,9.7-25.4,41.6-67.4,62.9-82.8,33.2-23.9,60.5-30.6,118.4-29,21.5.6,42.9,2.3,57.2,4.6,12.6,2,28.2,4.4,34.8,5.4,39.5,6,88.4-4.5,115.2-24.8,7-5.3,9.6-8,8.1-7.8-1.2.2-4.7,2.2-10.5,6.1-20.8,14.2-50.8,21.8-86,21.7-23.5,0-33.3-1.2-72.2-8.7-11.7-2.2-25.5-3-52.8-3.1-31.8,0-39.8.5-57.2,4-22.3,4.5-42.9,13.7-61.6,27.8-18.3,13.8-37.8,36.5-52.4,61.2l-2.7,4.7c13.9-69.7,56.7-129.2,115.2-165.4,9.7-3.4,48.8-3.6,98.8-.4,33.3,2.1,37.8,2.1,50-.6,14.5-3.2,35.5-10.6,38.3-13.5.4-.4.2-.5-.2-.5-.8,0-2.6.6-5,1.6-19.8,8.2-48.5,9.7-105.6,5.4-21.5-1.6-38.5-2-47.5-1.1-7.2.7-13.4,1.1-14.5,1,34.2-18.2,72.9-28.8,114.1-29.5-1.4,0-2.9,0-4.3.1,2.8,0,5.6-.1,8.6-.1s5.9,0,8.8.1c41.8,1.4,81,13,115.2,32.4-.9,2-13.7,12.9-21.9,18.5-7.7,5.2-34.5,16.4-46.2,19.2-15.4,3.7-47.7,3.2-65.1-1-37.4-9-89.7-11.4-116.8-5.4-14.6,3.2-31,9.9-29,11.8.5.5,5.5-.5,11.2-2.3,8.5-2.7,15.7-3.2,41.9-3.1,30.3.2,33.4.5,71.3,8.2,21.8,4.4,43.3,8.5,47.8,9,19,2.3,55.8-5.1,78.2-15.8,15.7-7.5,34.9-20.1,39.7-26.2,1.4-1.7,2.8-3.2,3.8-4,17.5,11.6,33.6,25.2,47.7,40.7.3,1.7-.7,3.9-3.5,8.4-12.2,19.5-39.7,44.5-60.7,55.2-28.3,14.4-81.3,18.4-135.6,10.4-26.7-3.9-70.7-5.3-86.8-2.7-15.8,2.5-41.3,10.5-54.2,17-25,12.5-52,35.9-66.3,57.2-10.4,15.5-8.8,16.1,3.1,1.2,18.8-23.6,38.7-39.2,70.4-55,26.1-13,39.1-15.7,77.7-15.6,17.9,0,37.7.9,44,2,25.9,4.5,66.2,7.7,83.3,6.5,24.2-1.6,53.6-9.4,72.7-19.2,22.2-11.5,47-34.1,57.5-52.4,1.7-3,3.5-5.5,4.3-6.4,13.2,15.5,24.6,32.6,33.8,50.9-.1,1.5-10.8,13.2-23.9,26.2-27.7,27.5-35.5,36.9-55.1,66.4-18.2,27.2-25.8,32.9-49.4,36.7-13.1,2.1-46.7.9-76.5-2.7-69.4-8.5-86.8-9.2-117.8-4.7-10.6,1.5-19.6,2.8-20,2.8-2.5,0,9.7-7.8,18.3-11.8,8.1-3.7,14-4.9,30.8-5.9,11.4-.7,25.7-.6,31.8.2,32,4.3,81.5,7.8,108.8,7.8s31.5-.3,39.8-4.1c11.2-5.1,17.2-11.3,28.6-29.8l8.9-14.5-8.3,4.7c-4.6,2.6-9.1,5.3-10.1,6.1-5.2,3.8-31,10.6-46.5,12.2-20,2.1-51.9.2-95.7-5.5-36.2-4.7-63-6-75.9-3.6-22.2,4.1-51,23.1-73.9,48.7-7.7,8.6-14.5,16.1-15,16.6-9.5,8.9-34.6,44.5-46.9,66.4-2.4,4.3-4.6,8-5.8,9.8-4-8.2-7.5-16.7-10.5-25.3,1.6-12.8,24.7-60.8,36.5-75.5,11.8-14.6,31-33.8,41.9-41.5,13.6-9.8,40-19.4,62.2-22.8,21.4-3.2,43-3.2,74.5,0,13.8,1.4,29.4,3,34.7,3.6,25.4,2.6,63.5,3.1,74,1,11.4-2.2,41.2-16,59.1-27.4,12-7.6,25.8-18.5,24.8-19.6ZM476.5,373.3c-17.3,13.8-43.7,27-66.2,33.2-29.1,8-75.6,8-122.3,0-69.8-11.9-103.1-7.2-138.5,19.7-10.4,7.9-16,14.1-8.4,9.2,23.4-15,37.3-21.4,53.8-24.8,24.3-5.1,42.8-4.7,82.5,1.8,48.4,7.9,79.6,10.8,97.7,9,52.6-5.3,94-22.9,122-51.7,11.3-11.6,21.8-25.6,27-35.9l3.2-6.4c-11.9,61.6-46.2,115.4-94.2,152.3-5.4,1.9-14.4,4.4-23.2,6.2-23.8,5-29.5,5-97.6.5-36.9-2.4-58.7-.7-78.7,6.2-13.9,4.9-19.9,9-7.7,5.3,16.7-5,42.9-6.7,78.6-5.1,42.8,1.9,91.1,2,103.8.3,3.3-.5,5.4-.7,6.6-.8-39.3,25.2-85.9,39.7-135.9,39.7s-88.1-12-125-33.1l2.8-3.1c12.5-13.3,38.1-28.6,60.7-36.1,18.6-6.2,38.6-5.8,147.6,2.8,18.2,1.4,50.5-5.8,74.6-16.7,8-3.6,11.8-6.5,9.8-6.4-.9,0-3,.7-6.5,2.1-10.4,4.3-31.3,9.4-47.6,11.6-19.2,2.5-49.9.3-89.1-6.7-34.9-6.1-82-6.9-99.5-1.5-20.2,6.1-42.5,18.7-57.1,32.3l-12.3,11.4c-16.1-10.9-30.8-23.6-44-37.8,1.6-6.5,20.9-32.8,33.9-45.9,15.6-15.7,16.6-16.3,33.7-22.5,25.8-9.3,56.9-13,87.8-10.4,12.7,1.1,33,2.7,45,3.7,24,2,65.6,2.4,81,.8,28.1-2.9,62.2-11.4,75.7-18.9,10.4-5.8,52.8-46.6,52.7-50.7,0-.3-.2-.5-.4-.5-.8,0-2.6,1.4-4.8,3.8-8.8,9.7-32.4,29.8-41.7,35.5-11.5,7.1-20,10-44.4,15.3-22,4.8-25.7,5.2-64.4,7-19.6.9-36.7.3-66-2.1-56.3-4.7-80.5-4.3-103.8,1.8-22.3,5.8-32.7,10.4-46.7,20.8-13.9,10.3-33.8,34.1-42.1,50.5l-2.2,4.4c-11.5-13.5-21.7-28.3-30.2-44,1.5-5.9,11.3-26.2,17.9-36.7,17.6-28.1,47.2-63.1,68.6-81.2,18.3-15.5,23.5-18.6,40.9-24.5,16.8-5.7,31.3-6.1,64.2-1.9,60.5,7.7,110,9.7,136.2,5.3,8.6-1.4,16-2.2,16.6-1.6,1.9,1.9-7.4,9.8-13.6,11.5-3.5,1-16.4,2.6-28.7,3.5-23.5,1.8-67.6-.5-115.7-6.2-30.8-3.6-39.6-3.4-55.4,1.8-22.9,7.5-32.9,14-43,28.1-5.7,8-5.8,8.3-1.8,7,2.3-.7,6.4-2.4,9-3.7,21.8-11.1,80.4-12.2,145.7-2.8,29.5,4.2,80.3,4.1,93.4-.2,15.3-5,25.5-14,39.7-34.7,22.2-32.5,27.4-38.6,53.4-62.6,13-12,24.1-21.9,26.2-23.3,3.2,7.3,6.2,14.8,8.7,22.4l-9,18.3c-18.6,37.9-39,64.5-64.3,83.5-30,22.6-81.7,33.4-127.8,26.7-44.8-6.5-109.4-8.7-129.7-4.4-24.4,5.2-57.7,24.1-76.1,43.2-11.6,12.1-10.3,12.1,4.4.1,10.8-8.8,34.1-20.4,55.4-27.6,22.2-7.5,52.8-7.9,108.2-1.4,32.9,3.8,50.9,5,75.7,5,30.5,0,33.6-.4,49.3-5,28.7-8.5,53.7-24.6,78-50.5,14.8-15.7,21.7-25.6,34.2-49,5-9.2,7.3-13.7,8.9-13.3,3.8,17.4,5.8,35.5,5.8,54.1s-.1,8.7-.3,13c-5.5,24.1-31.3,61.9-55.2,81Z"/>
  </g>
</svg>