<?xml version="1.0" encoding="UTF-8"?>
<svg xmlns="http://www.w3.org/2000/svg" version="1.1" xmlns:inkscape="http://www.inkscape.org/namespaces/inkscape" xmlns:sodipodi="http://sodipodi.sourceforge.net/DTD/sodipodi-0.dtd" xmlns:svg="http://www.w3.org/2000/svg" viewBox="0 0 521.4 545">
  <!-- Generator: Adobe Illustrator 29.1.0, SVG Export Plug-In . SVG Version: 2.1.0 Build 142)  -->
  <defs>
    <style>
      .st0 {
        fill: #fff;
      }
    </style>
  </defs>
  <g id="svg5" inkscape:export-xdpi="96" inkscape:export-ydpi="96" inkscape:version="1.2 (dc2aedaf03, 2022-05-15)" sodipodi:docname="hourglass_wip.svg">
    <sodipodi:namedview id="namedview7" bordercolor="#ffffff" borderopacity="1" inkscape:current-layer="layer5" inkscape:cx="341.22647" inkscape:cy="507.33671" inkscape:deskcolor="#505050" inkscape:document-units="mm" inkscape:pagecheckerboard="1" inkscape:pageopacity="0" inkscape:showpageshadow="0" inkscape:window-height="1417" inkscape:window-maximized="1" inkscape:window-width="2498" inkscape:window-x="2552" inkscape:window-y="-8" inkscape:zoom="0.99933631" pagecolor="#505050" showgrid="false"/>
    <g id="layer7" inkscape:groupmode="layer" inkscape:label="final">
      <g id="g3218" inkscape:groupmode="layer" inkscape:label="ash twin">
        <g id="g3214" inkscape:label="solar plants">
          <path id="path3210" class="st0" d="M27.1,236.6l-20.9,23.5,7,7.2,1.3-1.4,20.4-21.3-7.7-8ZM33.9,252.3l-12.6,12.7,10.9,10.1v-1.8c.1,0,.9-10.7.9-10.7l10.1-.6-9.3-9.7Z" inkscape:label="top solar plant"/>
          <path class="st0" d="M313.5,474.1l-68.1-11.6,3.1-2.6-6.8-7.4,3.6-3.5-17.4-17.1c6.8-12.1,10.6-26.1,10.6-41,0-46.6-37.8-84.3-84.3-84.3s-28.6,3.8-40.6,10.4l-13.8-13.7-3.2,2.6-6.9-7.3-2.6,2.7-11.5-65-5.4,5.6,11.8,59.6-24.1-32.9-20.8-2.2-.2,20.9,30,26.5-61.5-12.7L0,307l68.1,11.8-3.1,2.6,6.8,7.4-3.6,3.5,14.4,13.7c-8.2,13-12.9,28.3-12.9,44.8,0,46.6,37.8,84.3,84.3,84.3s31.2-4.5,44.1-12.4l15.7,15.3,3.2-2.6,6.9,7.3,2.6-2.7,11.7,64.9,5.4-5.6-11.9-59.5,24.2,32.9,20.8,2.2.2-20.9-30-26.4,61.5,12.6,5.1-6.1ZM83.8,344.2l-11.6-11.8,3.6-4-4.4-4.8,3.5-2.8,8.5,7.5-3.9,3.8,7.7,7.3c-1.2,1.5-2.3,3.1-3.4,4.8ZM104.3,322.7l-6.2-8.3-4.1,3.9-6.8-9.4,4.5-4.1,4.4,4.1,3.5-2.2,10.2,12.1c-1.9,1.2-3.8,2.4-5.6,3.8ZM221.7,476.4l-4.4-4.1-3.5,2.2-11.3-14.6c1.7-1.2,3.3-2.4,4.9-3.7l7.9,10.7,4-3.9,6.9,9.3-4.5,4.1ZM238.6,460.3l-8.5-7.5,3.9-3.8-10.6-10c1-1.4,1.9-2.8,2.8-4.2l15.2,13.9-3.6,4,4.4,4.8-3.5,2.8Z"/>
          <path id="path3212" class="st0" d="M300.6,513.9l-1.3,1.4-20.3,21.4,7.8,7.9,20.9-23.5-7-7.2ZM281.4,506v1.8c-.1,0-.8,10.7-.8,10.7l-10.1.6,9.4,9.7,12.6-12.7-11-10Z" inkscape:label="bottom solar plant" sodipodi:nodetypes="cccccccccccccccccccccccccccccccccccccccccccccccccc"/>
        </g>
      </g>
      <g id="g3232" inkscape:groupmode="layer" inkscape:label="ember twin">
        <path class="st0" d="M521.4,173.2l-13.3,26.2-9.8-7.5c-2.7,4.8-5.7,9.3-9,13.6l7.4,5.6-12.9,16.4-6.9-8.6c-7.3,6.6-15.5,12.3-24.5,16.8l-6.4-12.6c-12.3,6-25.7,9.3-39.4,9.6l.3,10.8c-.8,0-1.6,0-2.4,0-3.6,0-7.2-.2-10.8-.6l1.5-10.7c-13.3-1.4-26.2-5.6-37.8-12.3l41.2-50.7-7.6-6.3,3.9-3.7-12.9-12.5-4.1,3.7-7.4-7.6-48.5,40.4c-2.4-4.5-4.5-9.1-6.1-13.9l-7.3,4.3c-4.3-11.4-6.5-23.5-6.5-35.7,0-1,0-2,.1-2.9h8.7c.4-10.5,2.6-20.8,6.5-30.5l-14.9-6c7.8-19.7,20.9-36.2,37.3-48.1l-13.5-9.5,30.9-22.1,37.3-9.3,3.7,7-29.6,4.5-8.4,12.5.4,5c11.9-5.1,24.8-8.2,38.1-8.8v-12.2l-.5-1,1.4-.2-4.5-7h-.6c0,.1-5-9.2-5-9.2L419.1,0l-5.5,13.7-.3,16.4c8.7.8,17.2,2.6,25.4,5.4l-5.9,14.2c7.3,2.3,14.2,5.5,20.7,9.5l-43.8,44.5,6.2,8-4.4,3.9,12.6,13.6,4.2-4.3,7.4,5.9,45.1-46.1c5.4,7.6,9.6,15.9,12.6,24.7l8.4-3.4c3.3,10.2,5,21,5,31.7,0,3.8-.2,7.6-.7,11.4l5.5.7c-.6,6-1.8,11.8-3.3,17.5l12.6.2.4,5.5Z"/>
        <g id="g3230" inkscape:label="mountains">
          <polygon class="st0" points="399.4 16.4 398.1 16.6 394.4 9.6 394.9 9.4 399.4 16.4"/>
          <polygon class="st0" points="399.4 16.4 398.1 16.6 394.4 9.6 394.9 9.4 399.4 16.4"/>
        </g>
      </g>
      <g id="g3236" inkscape:groupmode="layer" inkscape:label="sand stream">
        <path id="path1313" class="st0" d="M362.8,159.4l-47.8,48.4,14.3,21.4,51.5-51.1-18-18.6ZM309.2,213.6l-94.1,95.1c6.6,4.9,12.6,10.6,17.9,17l90.9-91.1-14.6-21Z" inkscape:label="sand" sodipodi:nodetypes="cccccccccc"/>
      </g>
    </g>
  </g>
</svg>